<svg xmlns="http://www.w3.org/2000/svg" width="83.406" height="81.147" viewBox="0 0 83.406 81.147"><g transform="translate(-2.087 -1.898)"><path d="M44.2,1.9A41.509,41.509,0,0,0,31.13,83c1.922.384,3.459-1.73,3.459-3.459V73.967c-11.53,2.5-15.182-5.573-15.182-5.573a12.491,12.491,0,0,0-4.228-6.15c-3.843-2.69.192-2.5.192-2.5a8.263,8.263,0,0,1,6.342,3.843c3.267,5.573,10.569,5,12.876,4.036a10.377,10.377,0,0,1,.961-5.573c-13.068-2.306-20.178-9.993-20.178-20.37a20.562,20.562,0,0,1,5.573-14.605,11.915,11.915,0,0,1,.577-12.3,17.1,17.1,0,0,1,12.3,5.573A29.018,29.018,0,0,1,44.2,18.813a32.862,32.862,0,0,1,10.377,1.345,17.3,17.3,0,0,1,12.3-5.381,12.491,12.491,0,0,1,.769,12.3,20.562,20.562,0,0,1,5.381,14.605c0,10.377-7.11,18.064-20.178,20.37a10.377,10.377,0,0,1,.961,5.573V79.54A3.459,3.459,0,0,0,57.458,83,41.7,41.7,0,0,0,44.2,1.9Z" fill="#fff"/></g></svg>