<svg xmlns="http://www.w3.org/2000/svg" width="84.147" height="84.147" viewBox="0 0 84.147 84.147"><path d="M-100.927,145A42.07,42.07,0,0,0-143,187.073a42.07,42.07,0,0,0,42.073,42.073,42.07,42.07,0,0,0,42.073-42.073A42.07,42.07,0,0,0-100.927,145Zm-11.767,59.675h-8.2V178.429h8.2Zm-4.322-29.534h-.066a4.553,4.553,0,0,1-4.9-4.552c0-2.6,1.989-4.552,5.013-4.552a4.577,4.577,0,0,1,4.947,4.552C-112,173.12-113.927,175.142-117.016,175.142Zm37.127,29.534h-9.3V191.1c0-3.55-1.446-5.982-4.651-5.982a4.688,4.688,0,0,0-4.437,3.221,6.2,6.2,0,0,0-.2,2.153v14.183h-9.22s.115-24.061,0-26.247h9.22v4.125c.542-1.808,3.484-4.372,8.185-4.372,5.834,0,10.4,3.78,10.4,11.9Z" transform="translate(143 -145)" fill="#fff"/></svg>