<svg xmlns="http://www.w3.org/2000/svg" width="150.986" height="109.805" viewBox="0 0 150.986 109.805"><path d="M139.483,2.636H102.837A26.952,26.952,0,0,0,76.52,23.685,26.975,26.975,0,0,0,50.2,2.636H13.582A12.585,12.585,0,0,0,1,15.219V79.65A12.585,12.585,0,0,0,13.582,92.232H37.095c26.79,0,34.784,6.4,38.611,19.66a.837.837,0,0,0,1.573,0c3.853-13.264,11.848-19.66,38.611-19.66H139.4A12.585,12.585,0,0,0,151.986,79.65v-64.4a12.608,12.608,0,0,0-12.5-12.608ZM64.436,72.205a.911.911,0,0,1-.917.917H21.5a.911.911,0,0,1-.917-.917v-6a.911.911,0,0,1,.917-.917H63.544a.911.911,0,0,1,.917.917v6Zm0-15.964a.911.911,0,0,1-.917.917H21.5a.911.911,0,0,1-.917-.917v-6a.911.911,0,0,1,.917-.917H63.544a.911.911,0,0,1,.917.917v6Zm0-15.964a.911.911,0,0,1-.917.917H21.5a.911.911,0,0,1-.917-.917v-6a.911.911,0,0,1,.917-.917H63.544a.911.911,0,0,1,.917.917v6Zm67.97,31.9a.911.911,0,0,1-.917.917H89.469a.911.911,0,0,1-.917-.917v-6a.911.911,0,0,1,.917-.917h42.045a.911.911,0,0,1,.917.917v6Zm0-15.964a.911.911,0,0,1-.917.917H89.469a.911.911,0,0,1-.917-.917v-6a.911.911,0,0,1,.917-.917h42.045a.911.911,0,0,1,.917.917v6Zm0-15.964a.911.911,0,0,1-.917.917H89.469a.911.911,0,0,1-.917-.917V34.275a.911.911,0,0,1,.917-.917h42.045a.911.911,0,0,1,.917.917v5.977Z" transform="translate(-1 -2.636)" fill="#fff"/></svg>