<svg xmlns="http://www.w3.org/2000/svg" width="82" height="82" viewBox="0 0 82 82"><path d="M308.866,7496.891c-.988,2.787-4.916,5.125-8.048,5.781-2.144.451-4.94.82-14.362-3.076-10.582-4.387-25.276-20.008-25.276-30.379,0-5.289,3.05-11.482,8.385-11.482,2.567,0,3.132.082,3.977,2.094.988,2.377,3.4,8.281,3.686,8.855,1.185,2.5-1.205,3.936-2.94,6.068-.553.654-1.181,1.352-.48,2.582a36.27,36.27,0,0,0,6.65,8.24,30.2,30.2,0,0,0,9.615,5.945,2.576,2.576,0,0,0,2.891-.449,47.144,47.144,0,0,0,3.206-4.266,2.281,2.281,0,0,1,2.94-.859c.734.244,10.061,4.551,10.455,5.246.291.533.291,2.912-.7,5.7M285.008,7439h-.021A41.05,41.05,0,0,0,244,7480a40.58,40.58,0,0,0,7.806,24.025l-5.109,15.254,15.756-5.043A40.558,40.558,0,0,0,285.008,7521a41,41,0,0,0,0-82" transform="translate(-244 -7438.998)" fill="#fff" fill-rule="evenodd"/></svg>